<svg xmlns="http://www.w3.org/2000/svg" viewBox="0 0 420 250" role="img" aria-labelledby="t d">
<title id="t">Common availability found</title><desc id="d">Team Scheduler highlights a common time where everyone is available.</desc>
<rect width="420" height="250" rx="18" fill="#ffffff" stroke="#dde3de"/>
<text x="24" y="34" font-family="Arial, sans-serif" font-size="18" font-weight="700" fill="#252b28">Team Scheduler finds the common time</text>
<g font-family="Arial, sans-serif" font-size="11" font-weight="700" fill="#747c77">
  <text x="148" y="62">MON</text><text x="198" y="62">TUE</text><text x="248" y="62">WED</text><text x="298" y="62">THU</text><text x="348" y="62">FRI</text>
</g>
<g font-family="Arial, sans-serif" font-size="13" fill="#252b28">
  <text x="28" y="92">Nico</text><text x="28" y="126">Elena</text><text x="28" y="160">Max</text><text x="28" y="194">Sarah</text><text x="28" y="228">David</text>
</g>
<g fill="#f4f5f5" stroke="#eef0ef">
  <rect x="132" y="72" width="40" height="24" rx="4"/><rect x="182" y="72" width="40" height="24" rx="4"/><rect x="232" y="72" width="40" height="24" rx="4"/><rect x="282" y="72" width="40" height="24" rx="4"/><rect x="332" y="72" width="40" height="24" rx="4"/>
  <rect x="132" y="106" width="40" height="24" rx="4"/><rect x="182" y="106" width="40" height="24" rx="4"/><rect x="232" y="106" width="40" height="24" rx="4"/><rect x="282" y="106" width="40" height="24" rx="4"/><rect x="332" y="106" width="40" height="24" rx="4"/>
  <rect x="132" y="140" width="40" height="24" rx="4"/><rect x="182" y="140" width="40" height="24" rx="4"/><rect x="232" y="140" width="40" height="24" rx="4"/><rect x="282" y="140" width="40" height="24" rx="4"/><rect x="332" y="140" width="40" height="24" rx="4"/>
  <rect x="132" y="174" width="40" height="24" rx="4"/><rect x="182" y="174" width="40" height="24" rx="4"/><rect x="232" y="174" width="40" height="24" rx="4"/><rect x="282" y="174" width="40" height="24" rx="4"/><rect x="332" y="174" width="40" height="24" rx="4"/>
  <rect x="132" y="208" width="40" height="24" rx="4"/><rect x="182" y="208" width="40" height="24" rx="4"/><rect x="232" y="208" width="40" height="24" rx="4"/><rect x="282" y="208" width="40" height="24" rx="4"/><rect x="332" y="208" width="40" height="24" rx="4"/>
</g>
<g fill="#709874">
  <rect x="282" y="72" width="40" height="24" rx="4"/><rect x="282" y="106" width="40" height="24" rx="4"/><rect x="282" y="140" width="40" height="24" rx="4"/><rect x="282" y="174" width="40" height="24" rx="4"/><rect x="282" y="208" width="40" height="24" rx="4"/>
</g>
<g stroke="#ffffff" stroke-width="3" fill="none" stroke-linecap="round" stroke-linejoin="round">
  <path d="M294 84l6 6 11-13"/><path d="M294 118l6 6 11-13"/><path d="M294 152l6 6 11-13"/><path d="M294 186l6 6 11-13"/><path d="M294 220l6 6 11-13"/>
</g>
</svg>
